<?xml version="1.0" encoding="utf-8"?>
<!-- Generator: Adobe Illustrator 26.0.1, SVG Export Plug-In . SVG Version: 6.00 Build 0)  -->
<svg version="1.0" id="Слой_1" xmlns="http://www.w3.org/2000/svg" xmlns:xlink="http://www.w3.org/1999/xlink" x="0px" y="0px"
	 viewBox="0 0 25 25" style="enable-background:new 0 0 25 25;" xml:space="preserve">
<style type="text/css">
	.st0{fill:#E4E700;}
</style>
<g>
</g>
<rect y="0" class="st0" width="25" height="25"/>
<g>
	<path d="M5.36,5.88V3.62h9.29c1.42,0,2.54,0.17,3.35,0.5c0.81,0.33,1.44,0.81,1.88,1.43c0.44,0.62,0.65,1.3,0.65,2.04
		c0,0.54-0.12,1.05-0.35,1.54c-0.23,0.48-0.56,0.91-1,1.28s-1.01,0.68-1.72,0.92c0.77,0.2,1.35,0.41,1.76,0.64
		c0.59,0.33,1.05,0.79,1.39,1.38c0.34,0.59,0.52,1.25,0.52,1.97c0,0.87-0.26,1.67-0.78,2.4c-0.52,0.73-1.26,1.29-2.22,1.67
		c-0.96,0.38-2.35,0.57-4.19,0.57H5.36v-2.26h0.64c0.43,0,0.72-0.04,0.87-0.11s0.26-0.18,0.32-0.32s0.09-0.44,0.09-0.92V7.24
		c0-0.48-0.03-0.79-0.09-0.93S7.03,6.08,6.88,6S6.44,5.88,6.01,5.88H5.36z M11.34,10.24h1.79c0.94,0,1.63-0.08,2.08-0.23
		S16,9.61,16.22,9.3s0.34-0.68,0.34-1.1c0-0.43-0.11-0.8-0.32-1.1s-0.53-0.52-0.93-0.65s-1.13-0.19-2.18-0.19h-1.79V10.24z
		 M11.34,12.64v3.54c0.01,0.5,0.03,0.79,0.06,0.88c0.04,0.11,0.1,0.19,0.19,0.23s0.33,0.06,0.73,0.06h1.19
		c0.69,0,1.27-0.06,1.72-0.19c0.46-0.13,0.84-0.4,1.16-0.8c0.32-0.41,0.48-0.89,0.48-1.46c0-0.48-0.11-0.89-0.34-1.23
		c-0.23-0.34-0.57-0.59-1.02-0.76c-0.45-0.17-1.14-0.26-2.07-0.26H11.34z"/>
</g>
<g>
</g>
<g>
</g>
<g>
</g>
<g>
</g>
<g>
</g>
<g>
</g>
<g>
</g>
<g>
</g>
<g>
</g>
<g>
</g>
<g>
</g>
<g>
</g>
<g>
</g>
<g>
</g>
<g>
</g>
</svg>
