<?xml version="1.0" encoding="utf-8"?>
<!-- Generator: Adobe Illustrator 26.0.1, SVG Export Plug-In . SVG Version: 6.00 Build 0)  -->
<svg version="1.0" id="Слой_1" xmlns="http://www.w3.org/2000/svg" xmlns:xlink="http://www.w3.org/1999/xlink" x="0px" y="0px"
	 viewBox="0 0 25 25" style="enable-background:new 0 0 25 25;" xml:space="preserve">
<style type="text/css">
	.st0{fill:#E4E700;}
</style>
<g>
</g>
<rect y="0" class="st0" width="25" height="25"/>
<g>
	<path d="M11.74,3.62h6.43L17.94,4.6h-0.38c-0.59,0-1,0.05-1.23,0.16s-0.42,0.27-0.57,0.51s-0.29,0.67-0.43,1.32l-2.41,10.63
		c-0.11,0.46-0.16,0.78-0.16,0.95c0,0.28,0.12,0.49,0.38,0.65c0.17,0.11,0.51,0.16,1.01,0.16h0.55l-0.25,0.98H8.03l0.22-0.98h0.47
		c0.52,0,0.9-0.05,1.14-0.16s0.43-0.26,0.56-0.46s0.27-0.58,0.4-1.14l2.47-10.89c0.09-0.38,0.13-0.65,0.13-0.83
		c0-0.21-0.05-0.39-0.14-0.52s-0.23-0.24-0.4-0.29c-0.17-0.06-0.49-0.09-0.95-0.09h-0.41L11.74,3.62z"/>
</g>
<g>
</g>
<g>
</g>
<g>
</g>
<g>
</g>
<g>
</g>
<g>
</g>
<g>
</g>
<g>
</g>
<g>
</g>
<g>
</g>
<g>
</g>
<g>
</g>
<g>
</g>
<g>
</g>
<g>
</g>
</svg>
