<?xml version="1.0" encoding="utf-8"?>
<!-- Generator: Adobe Illustrator 26.0.1, SVG Export Plug-In . SVG Version: 6.00 Build 0)  -->
<svg version="1.0" id="Слой_1" xmlns="http://www.w3.org/2000/svg" xmlns:xlink="http://www.w3.org/1999/xlink" x="0px" y="0px"
	 viewBox="0 0 25 25" style="enable-background:new 0 0 25 25;" xml:space="preserve">
<style type="text/css">
	.st0{fill:#E4E700;}
</style>
<rect y="0" class="st0" width="25" height="25"/>
<g>
	<path d="M4.35,3.62h6.32V4.6h-0.42c-0.52,0-0.88,0.05-1.1,0.15c-0.17,0.08-0.3,0.21-0.39,0.4S8.63,5.73,8.63,6.29v7.37
		c0,1.31,0.16,2.29,0.47,2.92c0.32,0.63,0.84,1.16,1.58,1.59s1.55,0.65,2.43,0.65c0.89,0,1.73-0.23,2.53-0.69s1.36-1.01,1.68-1.64
		c0.32-0.63,0.48-1.63,0.48-3V6.4c0-0.52-0.05-0.89-0.15-1.12s-0.26-0.4-0.46-0.51c-0.21-0.11-0.53-0.17-0.97-0.17h-0.46V3.62h5.47
		V4.6h-0.38c-0.62,0-1.04,0.12-1.27,0.35c-0.23,0.24-0.35,0.68-0.35,1.33v7.54c0,1.38-0.26,2.52-0.77,3.44s-1.27,1.64-2.25,2.18
		s-2.13,0.8-3.43,0.8c-1.23,0-2.36-0.27-3.39-0.82s-1.78-1.23-2.26-2.04s-0.72-1.84-0.72-3.08V6.29c0-0.52-0.05-0.88-0.14-1.09
		C6.19,4.99,6.05,4.84,5.87,4.75C5.69,4.65,5.38,4.6,4.94,4.6H4.35V3.62z"/>
</g>
<rect x="4" y="21" width="17" height="1"/>
<g>
</g>
<g>
</g>
<g>
</g>
<g>
</g>
<g>
</g>
<g>
</g>
<g>
</g>
<g>
</g>
<g>
</g>
<g>
</g>
<g>
</g>
<g>
</g>
<g>
</g>
<g>
</g>
<g>
</g>
</svg>
