<svg width="45" height="45" viewBox="0 0 45 45" fill="none" xmlns="http://www.w3.org/2000/svg">
<path d="M22.5 17.5389L19.9844 12.5078C19.3612 11.2614 18.2777 9.46837 16.7458 8.02069C15.2376 6.5954 13.4339 5.625 11.25 5.625C6.53626 5.625 2.8125 9.35516 2.8125 13.8375C2.8125 17.2436 4.36985 19.6475 8.06688 23.3157C9.01339 24.2548 10.095 25.2699 11.2881 26.3896C14.4055 29.3153 18.2837 32.9549 22.5 37.8188C26.7163 32.9549 30.5945 29.3152 33.7119 26.3896C34.905 25.2699 35.9866 24.2548 36.9331 23.3157C40.6301 19.6475 42.1875 17.2436 42.1875 13.8375C42.1875 9.35516 38.4637 5.625 33.75 5.625C31.5661 5.625 29.7624 6.5954 28.2542 8.02069C26.7223 9.46837 25.6388 11.2614 25.0156 12.5078L22.5 17.5389ZM23.6011 40.8595C23.0279 41.5401 21.9721 41.5401 21.3989 40.8595C16.8945 35.5109 12.8199 31.6869 9.46426 28.5376C3.65476 23.0853 0 19.6553 0 13.8375C0 7.74857 5.0368 2.8125 11.25 2.8125C15.7504 2.8125 18.8958 5.7637 20.8224 8.45963C21.5557 9.48564 22.1123 10.4747 22.5 11.25C22.8877 10.4747 23.4443 9.48564 24.1776 8.45963C26.1042 5.7637 29.2496 2.8125 33.75 2.8125C39.9632 2.8125 45 7.74857 45 13.8375C45 19.6553 41.3452 23.0853 35.5357 28.5376C32.1801 31.6869 28.1055 35.5109 23.6011 40.8595Z" fill="black"/>
</svg>
