<svg width="45" height="45" viewBox="0 0 45 45" fill="none" xmlns="http://www.w3.org/2000/svg">
<path d="M24.9294 0.129542C22.2416 -0.542423 19.7462 1.49091 19.5646 4.1227C19.3605 7.08031 18.9194 9.79202 18.3588 11.4096C18.0087 12.4197 17.0127 14.2557 15.4372 16.0163C13.8682 17.7697 11.8289 19.3314 9.44136 19.9827C7.55295 20.4978 5.625 22.1342 5.625 24.5254V35.7782C5.625 38.1532 7.54405 39.8953 9.69727 40.1236C12.7052 40.4426 14.0957 41.2914 15.5136 42.157L15.6475 42.2387C16.4146 42.7062 17.2737 43.221 18.3778 43.6012C19.4933 43.9853 20.7994 44.2139 22.5 44.2139H32.3437C34.9792 44.2139 36.8408 42.8699 37.7835 41.2202C38.2448 40.4128 38.4961 39.5152 38.4961 38.6548C38.4961 38.2263 38.4321 37.777 38.28 37.3485C38.8466 36.6108 39.3511 35.7246 39.6544 34.8148C39.963 33.8889 40.1369 32.6731 39.6636 31.5854C39.8581 31.2178 40.0036 30.829 40.1119 30.4498C40.329 29.69 40.4297 28.8545 40.4297 28.042C40.4297 27.2295 40.329 26.394 40.1119 25.6342C40.0149 25.2946 39.888 24.9472 39.7228 24.6143C40.8327 23.0072 40.8997 21.2368 40.3807 19.7395C39.8036 18.0743 38.4648 16.6469 37.0072 16.1611C34.6246 15.3669 31.9351 15.3852 29.9313 15.5673C29.4863 15.6078 29.068 15.657 28.6858 15.7093C30.009 10.0904 29.1291 5.3213 28.5091 3.02629C28.1228 1.59614 26.9653 0.638498 25.6647 0.313353L24.9294 0.129542ZM32.3437 41.4014H22.5C21.0637 41.4014 20.0726 41.2101 19.2935 40.9419C18.5031 40.6697 17.8702 40.2996 17.111 39.8369L16.9988 39.7685C15.4383 38.8164 13.6283 37.7122 9.99385 37.3268C9.05779 37.2275 8.4375 36.5098 8.4375 35.7782V24.5254C8.4375 23.8101 9.07283 22.9985 10.1815 22.696C13.2622 21.8557 15.7411 19.8943 17.5331 17.8918C19.3187 15.8964 20.5265 13.7436 21.0162 12.3306C21.6985 10.3619 22.1605 7.35825 22.3704 4.31627C22.4407 3.29728 23.385 2.64244 24.2473 2.85803L24.9826 3.04184C25.4343 3.15476 25.7093 3.44612 25.794 3.75969C26.4137 6.05405 27.3354 11.1982 25.3847 17.0504C25.2224 17.5373 25.3382 18.074 25.687 18.4506C26.0356 18.827 26.562 18.9836 27.0598 18.8594L27.0671 18.8576L27.1057 18.8484C27.1415 18.8399 27.1973 18.827 27.2713 18.8107C27.4194 18.7781 27.64 18.7319 27.9196 18.6801C28.48 18.5763 29.2711 18.4514 30.1859 18.3682C32.0493 18.1988 34.2816 18.2171 36.1178 18.8292C36.6114 18.9937 37.382 19.6757 37.7233 20.6605C38.0229 21.5249 37.9647 22.5416 36.9744 23.532L35.98 24.5264L36.9744 25.5207C37.094 25.6404 37.2677 25.9172 37.4076 26.4068C37.5421 26.8775 37.6172 27.4482 37.6172 28.042C37.6172 28.6357 37.5421 29.2065 37.4076 29.6771C37.2677 30.1668 37.094 30.4436 36.9744 30.5632L35.98 31.5576L36.9744 32.552C37.1067 32.6843 37.2786 33.0482 36.9862 33.9254C36.7115 34.7496 36.1353 35.6211 35.5681 36.1882L34.5738 37.1826L35.5681 38.177C35.5829 38.1917 35.6836 38.3165 35.6836 38.6548C35.6836 38.9809 35.5833 39.4016 35.3415 39.8248C34.8779 40.636 33.927 41.4014 32.3437 41.4014Z" fill="black"/>
</svg>
